<?xml version="1.0" encoding="utf-8"?>
<!-- Generator: Adobe Illustrator 16.0.0, SVG Export Plug-In . SVG Version: 6.00 Build 0)  -->
<!DOCTYPE svg PUBLIC "-//W3C//DTD SVG 1.1//EN" "http://www.w3.org/Graphics/SVG/1.1/DTD/svg11.dtd">
<svg version="1.1" xmlns="http://www.w3.org/2000/svg" xmlns:xlink="http://www.w3.org/1999/xlink" x="0px" y="0px" width="2000px"
	 height="2000px" viewBox="0 0 2000 2000" enable-background="new 0 0 2000 2000" xml:space="preserve">
<g id="bg" display="none">
	<rect display="inline" fill="#C60C35" width="2000" height="2000"/>
	<rect display="inline" fill="#EFEFEF" width="2000" height="2000"/>
	<rect display="inline" fill="#141414" width="2000" height="2000"/>
</g>
<g id="sis-logo" display="none">
	<polygon id="speech-bubble" display="inline" fill="#EFEFEF" points="480,350 480,1130.01 480,1390.006 480,1650 727.175,1390 
		1520,1390 1520,350 	"/>
	<g id="lan" display="inline">
		<path fill="#141414" d="M590.346,909.388h19.317l-22.206,104.406h60.998l-3.588,16.906h-80.315L590.346,909.388z"/>
		<path fill="#141414" d="M686.048,1032.384c-5.021,0-9.485-0.967-13.417-2.863c-3.928-1.963-7.265-4.565-9.998-7.889
			c-2.731-3.298-4.811-7.188-6.232-11.686c-1.436-4.508-2.125-9.293-2.125-14.425c0-7.301,1.323-14.318,3.998-21.058
			c2.676-6.697,6.286-12.635,10.847-17.763c4.557-5.126,9.806-9.233,15.723-12.289c5.93-3.088,12.125-4.621,18.637-4.621
			c6.491,0,11.91,1.721,16.31,5.242c4.382,3.476,7.484,7.862,9.314,13.234l3.585-16.783h18.955l-14.338,66.979
			c-0.128,0.624-0.214,1.077-0.26,1.485c-0.063,0.406-0.086,0.759-0.086,1.089c0,2.313,1.308,3.498,3.933,3.606l-3.413,16.059
			c-1.609,0.24-3.057,0.44-4.366,0.595c-1.304,0.155-2.43,0.233-3.323,0.233c-7.413,0-11.113-2.923-11.113-8.875
			c0-1.8,0.403-4.529,1.197-8.183c-4.328,5.813-9.575,10.229-15.727,13.326C698.015,1030.891,691.965,1032.384,686.048,1032.384z
			 M694.251,1016.356c2.261,0,4.69-0.454,7.249-1.353c2.568-0.948,5.071-2.18,7.507-3.776c2.46-1.62,4.711-3.464,6.766-5.651
			c2.056-2.153,3.708-4.5,4.961-7.022l4.777-23.394c-0.344-2.709-1.11-5.238-2.304-7.597c-1.191-2.336-2.721-4.385-4.53-6.146
			c-1.825-1.742-3.823-3.121-5.973-4.113c-2.178-0.952-4.44-1.454-6.844-1.454c-4.336,0-8.402,1.125-12.201,3.258
			c-3.821,2.192-7.18,4.952-10.098,8.356c-2.908,3.434-5.2,7.31-6.912,11.747c-1.712,4.382-2.562,8.769-2.562,13.201
			c0,3.429,0.452,6.598,1.352,9.493c0.918,2.914,2.257,5.425,4.017,7.547c1.771,2.12,3.916,3.75,6.407,5.02
			C688.374,1015.716,691.174,1016.356,694.251,1016.356z"/>
		<path fill="#141414" d="M775.231,941.323h16.916l-3.756,17.938c4.436-6.012,10.085-10.754,16.919-14.229
			c6.834-3.521,14.012-5.242,21.537-5.242c3.741,0,6.886,0.525,9.396,1.533c2.485,1.02,4.516,2.485,6.049,4.339
			c1.533,1.935,2.651,4.102,3.344,6.611c0.677,2.493,1.025,5.286,1.025,8.362c0,2.422-0.205,4.926-0.604,7.547
			c-0.393,2.616-0.881,5.277-1.448,8.008l-11.457,54.509h-18.801l10.613-50.078c0.436-2.131,0.785-4.141,1.018-5.895
			c0.23-1.767,0.338-3.463,0.338-5.05c0-8.74-3.649-13.14-10.928-13.14c-2.511,0-5.124,0.544-7.866,1.538
			c-2.727,1.033-5.401,2.487-8.019,4.353c-2.633,1.89-5.102,4.118-7.441,6.682c-2.334,2.567-4.248,5.354-5.718,8.47l-11.456,53.121
			h-18.806L775.231,941.323z"/>
		<path fill="#141414" d="M882.021,1068.82c-9.451,0-16.938-1.706-22.473-5.043c-5.522-3.398-9.818-8.064-12.887-14.087l12.64-9.929
			c2.272,4.796,5.672,8.409,10.161,10.919c4.507,2.511,9.656,3.76,15.461,3.76c3.653,0,7.209-0.496,10.679-1.548
			c3.469-1.021,6.691-2.615,9.656-4.771c2.967-2.165,5.504-4.878,7.606-8.203c2.105-3.323,3.63-7.238,4.522-11.786l2.746-13.661
			c-4.003,5.438-8.936,9.684-14.874,12.637c-5.92,2.972-11.788,4.421-17.588,4.421c-4.797,0-9.063-0.948-12.825-2.875
			c-3.763-1.939-6.917-4.55-9.478-7.859c-2.562-3.339-4.538-7.139-5.897-11.446c-1.354-4.349-2.047-8.971-2.047-13.827
			c0-7.301,1.35-14.318,4.099-21.058c2.731-6.697,6.406-12.635,11.022-17.763c4.617-5.126,9.966-9.233,16.063-12.289
			c6.096-3.088,12.557-4.621,19.387-4.621c6.833,0,12.387,1.692,16.666,5.107c4.268,3.415,7.558,7.907,9.815,13.369l3.59-16.942
			h16.579l-18.454,86.809c-1.361,6.513-3.767,12.235-7.178,17.249c-3.42,5-7.513,9.255-12.306,12.711
			c-4.776,3.508-10.138,6.147-16.055,7.989C894.73,1067.893,888.526,1068.82,882.021,1068.82z M897.065,1016.356
			c2.61,0,5.229-0.47,7.863-1.489c2.617-0.956,5.127-2.259,7.52-3.922c2.378-1.633,4.543-3.502,6.49-5.607
			c1.929-2.12,3.467-4.369,4.593-6.784l5.127-23.394c-0.903-5.688-3.225-10.328-6.999-13.891c-3.76-3.632-8.09-5.419-12.977-5.419
			c-4.325,0-8.438,1.156-12.313,3.338c-3.878,2.229-7.25,5.073-10.167,8.556c-2.883,3.458-5.177,7.39-6.833,11.775
			c-1.648,4.389-2.463,8.702-2.463,12.894c0,3.322,0.472,6.442,1.444,9.347c0.962,2.85,2.327,5.394,4.108,7.589
			c1.753,2.14,3.863,3.854,6.31,5.123C891.212,1015.716,893.975,1016.356,897.065,1016.356z"/>
		<path fill="#141414" d="M983.176,1032.384c-13.908,0-20.849-7.389-20.849-22.19c0-4.217,0.56-8.961,1.721-14.199l11.783-54.671
			h18.621l-10.925,50.932c-0.806,3.637-1.195,7.065-1.195,10.243c0,9.251,3.935,13.858,11.783,13.858
			c5.005,0,10.059-1.655,15.135-4.992c5.057-3.283,9.523-8.085,13.398-14.345l11.797-55.696h18.773l-14.182,67.138
			c-0.314,1.053-0.498,1.927-0.498,2.574c0,2.166,1.311,3.373,3.922,3.606l-3.227,16.059c-1.729,0.24-3.203,0.44-4.455,0.595
			c-1.262,0.155-2.396,0.233-3.428,0.233c-3.408,0-6.1-0.666-8.014-2.103c-1.955-1.438-2.895-3.56-2.895-6.416
			c0-0.904,0.102-2.106,0.336-3.568c0.205-1.506,0.604-3.785,1.188-6.854c-5.125,6.474-11.066,11.435-17.758,14.748
			C997.469,1030.725,990.47,1032.384,983.176,1032.384z"/>
		<path fill="#141414" d="M1092.697,1032.384c-5,0-9.484-0.967-13.393-2.863c-3.941-1.963-7.287-4.565-10.02-7.889
			c-2.719-3.298-4.813-7.188-6.244-11.686c-1.395-4.508-2.127-9.293-2.127-14.425c0-7.301,1.354-14.318,4.037-21.058
			c2.67-6.697,6.285-12.635,10.826-17.763c4.574-5.126,9.797-9.233,15.742-12.289c5.885-3.088,12.125-4.621,18.605-4.621
			s11.953,1.721,16.311,5.242c4.422,3.476,7.492,7.862,9.324,13.234l3.566-16.783h18.988l-14.35,66.979
			c-0.1,0.624-0.176,1.077-0.232,1.485c-0.084,0.406-0.115,0.759-0.115,1.089c0,2.313,1.318,3.498,3.947,3.606l-3.447,16.059
			c-1.568,0.24-3.012,0.44-4.34,0.595c-1.32,0.155-2.41,0.233-3.346,0.233c-7.408,0-11.102-2.923-11.102-8.875
			c0-1.8,0.43-4.529,1.178-8.183c-4.295,5.813-9.539,10.229-15.68,13.326C1104.674,1030.891,1098.605,1032.384,1092.697,1032.384z
			 M1100.885,1016.356c2.301,0,4.734-0.454,7.301-1.353c2.568-0.948,5.039-2.18,7.502-3.776c2.455-1.62,4.691-3.464,6.76-5.651
			c2.045-2.153,3.703-4.5,4.941-7.022l4.797-23.394c-0.344-2.709-1.113-5.238-2.311-7.597c-1.199-2.336-2.697-4.385-4.545-6.146
			c-1.803-1.742-3.809-3.121-5.959-4.113c-2.154-0.952-4.451-1.454-6.85-1.454c-4.307,0-8.398,1.125-12.211,3.258
			c-3.834,2.192-7.186,4.952-10.072,8.356c-2.926,3.434-5.221,7.31-6.943,11.747c-1.684,4.382-2.568,8.769-2.568,13.201
			c0,3.429,0.473,6.598,1.363,9.493c0.936,2.914,2.275,5.425,4.023,7.547c1.793,2.12,3.91,3.75,6.418,5.02
			C1095.043,1015.716,1097.83,1016.356,1100.885,1016.356z"/>
		<path fill="#141414" d="M1190.617,1068.82c-9.479,0-16.953-1.706-22.459-5.043c-5.527-3.398-9.844-8.064-12.914-14.087
			l12.637-9.929c2.285,4.796,5.664,8.409,10.178,10.919c4.475,2.511,9.637,3.76,15.461,3.76c3.646,0,7.201-0.496,10.66-1.548
			c3.48-1.021,6.693-2.615,9.67-4.771c2.949-2.165,5.488-4.878,7.607-8.203c2.109-3.323,3.621-7.238,4.525-11.786l2.736-13.661
			c-3.973,5.438-8.936,9.684-14.869,12.637c-5.939,2.972-11.781,4.421-17.602,4.421c-4.797,0-9.053-0.948-12.809-2.875
			c-3.768-1.939-6.932-4.55-9.492-7.859c-2.572-3.339-4.525-7.139-5.893-11.446c-1.354-4.349-2.049-8.971-2.049-13.827
			c0-7.301,1.355-14.318,4.104-21.058c2.75-6.697,6.398-12.635,11-17.763c4.639-5.126,9.986-9.233,16.094-12.289
			c6.076-3.088,12.559-4.621,19.371-4.621c6.84,0,12.391,1.692,16.658,5.107c4.279,3.415,7.535,7.907,9.834,13.369l3.605-16.942
			h16.574l-18.479,86.809c-1.375,6.513-3.752,12.235-7.156,17.249c-3.416,5-7.529,9.255-12.33,12.711
			c-4.779,3.508-10.143,6.147-16.064,7.989C1203.313,1067.893,1197.107,1068.82,1190.617,1068.82z M1205.648,1016.356
			c2.619,0,5.225-0.47,7.857-1.489c2.627-0.956,5.125-2.259,7.521-3.922c2.387-1.633,4.535-3.502,6.486-5.607
			c1.926-2.12,3.455-4.369,4.611-6.784l5.133-23.394c-0.908-5.688-3.254-10.328-6.998-13.891c-3.746-3.632-8.104-5.419-12.998-5.419
			c-4.33,0-8.422,1.156-12.307,3.338c-3.855,2.229-7.27,5.073-10.168,8.556c-2.896,3.458-5.178,7.39-6.824,11.775
			c-1.674,4.389-2.461,8.702-2.461,12.894c0,3.322,0.473,6.442,1.443,9.347c0.947,2.85,2.324,5.394,4.102,7.589
			c1.746,2.14,3.852,3.854,6.299,5.123C1199.799,1015.716,1202.564,1016.356,1205.648,1016.356z"/>
		<path fill="#141414" d="M1305.268,1032.384c-5.699,0-10.748-0.967-15.111-2.863c-4.41-1.963-8.121-4.596-11.229-7.956
			c-3.057-3.369-5.389-7.333-6.982-11.978c-1.607-4.624-2.391-9.57-2.391-14.919c0-7.306,1.391-14.261,4.172-20.882
			c2.793-6.57,6.676-12.385,11.623-17.411c4.941-5.019,10.852-9.042,17.596-12.035c6.783-3.04,14.096-4.55,21.945-4.55
			c9.256,0,16.611,2.088,22.145,6.251c5.516,4.169,8.275,10.283,8.275,18.352c0,18.704-16.682,28.019-50.043,28.019
			c-4.916,0-10.424-0.156-16.584-0.521v3.093c0,3.325,0.391,6.405,1.205,9.229c0.787,2.836,1.984,5.355,3.582,7.537
			c1.607,2.145,3.643,3.838,6.16,5.055c2.49,1.162,5.467,1.761,8.883,1.761c4.885,0,9.623-1.238,14.189-3.697
			c4.535-2.402,8.129-5.725,10.744-9.963l14.865,4.609c-2.162,3.434-4.803,6.506-7.928,9.315c-3.162,2.782-6.611,5.192-10.35,7.178
			c-3.76,1.98-7.754,3.569-11.963,4.693C1313.871,1031.835,1309.59,1032.384,1305.268,1032.384z M1322.518,953.658
			c-4.105,0-7.869,0.664-11.27,2.121c-3.408,1.419-6.439,3.328-9.057,5.717c-2.623,2.423-4.846,5.164-6.682,8.331
			c-1.803,3.091-3.285,6.364-4.416,9.77c5.221,0.329,10.07,0.549,14.504,0.549c6.031,0,11.104-0.394,15.193-1.157
			c4.1-0.741,7.459-1.759,10.018-3.042c2.553-1.319,4.383-2.939,5.457-4.791c1.076-1.893,1.639-3.94,1.639-6.254
			c0-3.884-1.373-6.712-4.131-8.527C1331.053,954.573,1327.305,953.658,1322.518,953.658z"/>
		<path fill="#141414" d="M1390.178,1032.384c-6.955,0-13.566-1.145-19.824-3.51c-6.268-2.285-11.395-5.611-15.377-9.955
			l10.082-11.952c8.553,7.814,17.715,11.749,27.537,11.749c5.781,0,10.438-1.313,14-3.935c3.531-2.598,5.297-6.06,5.297-10.375
			c0-3.073-1.463-5.418-4.363-7.017c-2.916-1.6-7.436-3.261-13.574-4.978c-4.346-1.215-8.104-2.461-11.277-3.651
			c-3.211-1.228-5.826-2.561-7.869-4.119c-2.061-1.525-3.584-3.261-4.629-5.206c-1.02-1.907-1.514-4.213-1.514-6.839
			c0-5.011,1.064-9.512,3.23-13.578c2.148-4.042,5.061-7.488,8.719-10.333c3.621-2.868,7.854-5.04,12.631-6.585
			c4.785-1.541,9.834-2.31,15.205-2.31c6.391,0,12.098,1.035,17.102,3.094c5.023,2.013,9.344,4.996,12.986,8.838l-10.418,11.336
			c-3.32-3.325-6.895-5.814-10.777-7.465c-3.873-1.647-7.902-2.455-12.123-2.455c-5.002,0-9.295,1.152-12.811,3.562
			c-3.533,2.407-5.309,6.042-5.309,10.943c0,2.825,1.207,4.99,3.58,6.44c2.393,1.394,6.379,2.841,11.98,4.355
			c4.773,1.232,8.932,2.562,12.463,3.895c3.529,1.38,6.473,2.914,8.793,4.556c2.336,1.632,4.09,3.549,5.227,5.689
			c1.121,2.177,1.701,4.694,1.701,7.539c0,4.787-1,9.14-2.982,13.057c-2.014,3.933-4.775,7.319-8.355,10.181
			c-3.625,2.84-7.914,5.08-12.912,6.671C1401.586,1031.589,1396.1,1032.384,1390.178,1032.384z"/>
		<path fill="#141414" d="M630.508,1221.711c-5.585,5.13-11.452,9.029-17.6,11.715c-6.147,2.686-12.313,4.03-18.452,4.03
			c-4.563,0-8.682-0.742-12.397-2.22c-3.705-1.494-6.83-3.529-9.396-6.147c-2.564-2.624-4.527-5.688-5.89-9.15
			c-1.365-3.466-2.043-7.266-2.043-11.365c0-4.674,0.806-8.903,2.478-12.735c1.639-3.793,3.845-7.295,6.58-10.5
			c2.722-3.213,5.873-6.12,9.479-8.79c3.589-2.689,7.373-5.279,11.36-7.768c-2.966-4.797-5.15-9.021-6.576-12.661
			c-1.426-3.621-2.144-7.189-2.144-10.622c0-4.533,1.001-8.811,3-12.796c1.989-3.974,4.69-7.457,8.117-10.41
			c3.417-2.977,7.364-5.276,11.873-6.935c4.485-1.657,9.197-2.49,14.104-2.49c6.49,0,12.238,1.698,17.256,5.058
			c5.014,3.343,8.648,8.29,10.933,14.777l-12.985,9.044c-1.49-4.418-3.821-7.991-7.008-10.757
			c-3.195-2.732-6.722-4.078-10.596-4.078c-2.279,0-4.434,0.419-6.49,1.267c-2.063,0.846-3.874,2.001-5.479,3.412
			c-1.591,1.424-2.845,3.097-3.749,4.954c-0.917,1.89-1.375,3.833-1.375,5.922c0,2.262,0.744,5.011,2.215,8.156
			c1.496,3.219,4.217,7.639,8.205,13.362l20.847,30.237c2.288-4.357,4.255-8.948,5.9-13.847c1.656-4.886,2.933-10.149,3.848-15.725
			h30.584l-2.57,14.003h-15.381c-3.409,10.612-7.961,19.96-13.658,28.037l20.338,29.049h-23.767L630.508,1221.711z M598.892,1222.75
			c4.105,0,8.244-1.072,12.396-3.16c4.159-2.098,8.051-5.035,11.711-8.782l-20.35-30.074c-6.139,3.859-10.962,7.81-14.432,11.773
			c-3.483,3.99-5.214,8.674-5.214,14.021c0,5.239,1.541,9.234,4.619,12.049C590.697,1221.358,594.456,1222.75,598.892,1222.75z"/>
		<path fill="#C60C35" d="M728.926,1114.426h20.672l14.178,99.121l26.146-44.608l-8.198-53.976h17.949l5.123,41.156l22.723-41.156
			h17.942l-31.117,53.976l7.021,44.608l56.223-99.121h21.012l-73.308,121.313h-16.228l-9.556-54.36l-32.814,54.36h-16.237
			L728.926,1114.426z"/>
		<path fill="#C60C35" d="M904.237,1146.377h18.788l-19.125,89.361h-18.793L904.237,1146.377z M911.588,1110.997h18.79l-4.28,20.674
			h-18.782L911.588,1110.997z"/>
		<path fill="#C60C35" d="M945.08,1146.377h16.905l-3.755,17.923c4.447-6.04,10.092-10.777,16.919-14.235
			c6.835-3.486,14.013-5.201,21.521-5.201c3.76,0,6.881,0.494,9.383,1.514c2.516,1.051,4.566,2.468,6.064,4.359
			c1.553,1.885,2.666,4.046,3.35,6.549c0.688,2.521,1.029,5.31,1.029,8.414c0,2.396-0.221,4.898-0.604,7.516
			c-0.396,2.633-0.891,5.29-1.434,7.997l-11.457,54.526h-18.798l10.592-50.057c0.46-2.153,0.8-4.121,1.025-5.918
			c0.229-1.744,0.33-3.437,0.33-5.019c0-8.802-3.639-13.169-10.928-13.169c-2.501,0-5.121,0.516-7.854,1.555
			c-2.729,1.006-5.419,2.481-8.045,4.339c-2.623,1.877-5.094,4.115-7.415,6.678c-2.327,2.567-4.242,5.361-5.724,8.463
			l-11.457,53.128h-18.791L945.08,1146.377z"/>
		<path fill="#C60C35" d="M1063.123,1237.456c-5.67,0-10.713-0.959-15.115-2.931c-4.379-1.927-8.113-4.562-11.189-7.91
			c-3.063-3.372-5.412-7.373-7.004-11.981c-1.586-4.613-2.398-9.601-2.398-14.931c0-7.329,1.389-14.251,4.203-20.87
			c2.797-6.6,6.662-12.4,11.617-17.417c4.969-5.014,10.824-9.051,17.592-12.054c6.793-3.013,14.098-4.499,21.967-4.499
			c9.234,0,16.604,2.046,22.117,6.215c5.535,4.169,8.289,10.282,8.289,18.338c0,18.706-16.695,28.022-50.078,28.022
			c-4.893,0-10.42-0.139-16.566-0.476v3.042c0,3.346,0.418,6.393,1.211,9.254c0.795,2.828,1.984,5.346,3.586,7.514
			c1.588,2.16,3.648,3.827,6.162,5.022c2.488,1.215,5.443,1.824,8.875,1.824c4.906,0,9.602-1.229,14.176-3.681
			c4.57-2.446,8.137-5.787,10.76-9.985l14.879,4.602c-2.176,3.396-4.822,6.533-7.965,9.325c-3.123,2.782-6.555,5.181-10.311,7.161
			c-3.758,1.986-7.758,3.542-11.98,4.697C1071.762,1236.87,1067.484,1237.456,1063.123,1237.456z M1080.402,1158.68
			c-4.1,0-7.857,0.7-11.275,2.119c-3.438,1.43-6.439,3.338-9.047,5.744c-2.627,2.396-4.869,5.169-6.666,8.284
			c-1.848,3.125-3.324,6.385-4.451,9.803c5.232,0.361,10.08,0.54,14.512,0.54c6.029,0,11.107-0.399,15.205-1.134
			c4.115-0.706,7.434-1.761,10-3.047c2.559-1.353,4.393-2.912,5.475-4.82c1.07-1.841,1.615-3.936,1.615-6.22
			c0-3.867-1.359-6.722-4.084-8.533C1088.945,1159.585,1085.193,1158.68,1080.402,1158.68z"/>
	</g>
	<g id="sis" display="inline">
		<path fill="#141414" d="M557.745,763.284c-1.248-14.979,2.075-35.78,7.485-48.252c2.495-2.086,6.649-2.086,8.73,0.833
			c2.92,36.19,19.975,63.636,61.565,63.636c26.622,0,60.737-17.055,60.737-58.644c0-30.794-19.554-47.846-41.599-65.31
			c-21.633-17.479-43.265-42.43-43.265-72.382c0-45.349,35.782-78.622,91.108-78.622c27.032,0,51.159,10.394,60.319,16.631
			c-5.825,10.407-11.242,33.695-15.393,48.255c-2.917,2.496-8.734,2.083-11.229-0.412c5.813-28.281-2.083-51.587-39.113-51.587
			c-37.846,0-56.148,24.554-56.148,53.245c0,27.871,25.375,48.255,40.343,59.908c25.375,19.545,44.925,41.59,44.925,75.713
			c0,49.502-37.85,86.101-95.674,86.101C600.582,792.399,571.879,783.252,557.745,763.284z"/>
		<path fill="#141414" d="M842.697,571.103c12.472-39.11,13.31-45.349-9.569-49.09l-9.98-1.66
			c-2.498-3.331-2.082-8.745,2.495-10.405c16.629,0.837,30.774,1.247,48.254,1.247c17.056,0,29.951-0.41,49.912-1.247
			c2.914,1.66,3.743,8.324,0,10.405l-11.226,1.66c-24.127,3.741-25.8,7.906-38.686,49.09l-48.68,154.745
			c-12.063,38.685-13.311,47.414,7.911,49.501l12.896,1.247c2.499,2.906,1.251,8.73-1.669,10.403
			c-20.385-0.833-34.52-1.246-52.406-1.246c-17.057,0-31.201,0.412-47.846,1.246c-3.33-2.081-3.33-7.909-0.409-10.403l12.895-1.247
			c19.963-2.087,24.127-7.076,37.433-49.501L842.697,571.103z"/>
		<path fill="#141414" d="M895.527,763.284c-1.249-14.979,2.072-35.78,7.487-48.252c2.496-2.086,6.647-2.086,8.73,0.833
			c2.908,36.19,19.974,63.636,61.565,63.636c26.622,0,60.729-17.055,60.729-58.644c0-30.794-19.531-47.846-41.587-65.31
			c-21.634-17.479-43.269-42.43-43.269-72.382c0-45.349,35.781-78.622,91.092-78.622c27.053,0,51.18,10.394,60.338,16.631
			c-5.846,10.407-11.236,33.695-15.396,48.255c-2.924,2.496-8.732,2.083-11.225-0.412c5.805-28.281-2.102-51.587-39.129-51.587
			c-37.835,0-56.136,24.554-56.136,53.245c0,27.871,25.38,48.255,40.347,59.908c25.373,19.545,44.932,41.59,44.932,75.713
			c0,49.502-37.867,86.101-95.682,86.101C938.366,792.399,909.662,783.252,895.527,763.284z"/>
		<path fill="#141414" d="M1130.16,764.943c0,16.64-11.656,26.623-23.734,26.623c-11.652,0-18.297-7.487-18.297-19.552
			c0-14.966,11.646-25.782,23.719-25.782C1123.896,746.232,1130.16,755.373,1130.16,764.943z M1197.945,530.335
			c-1.662,4.988-5.412,13.719-13.717,34.943l-51.574,135.193c-1.672,3.33-8.342,3.33-10.83,0l28.709-134.359
			c4.582-22.059,6.645-30.79,8.318-36.194c3.311-11.238,7.91-12.896,22.059-12.896
			C1197.127,517.022,1200.439,522.422,1197.945,530.335z"/>
	</g>
	<g id="wine" display="inline">
		<path fill="#C60C35" d="M1379.076,632.327c-16.479-36.663-13.459-64.85,9.205-86.174c15.973-15.015,13.666-36.409-4.133-38.414
			c-38.029-4.315-60.465,59.963-36.766,105.276c6.811,12.998,3.596,28.586,2.965,29.476c-3.541,5.17-14.059-1.952-21.445-9.972
			c-10.939-11.894-23.602-30.043-30.219-19.205c-7.797,12.792,1.988,40.969,21.418,47.042c13.398,4.204,6.254,15.193-2.002,14.061
			c-9.473-1.327-19.162-5.237-27.771-10.875c-8.582-5.646-16.082-13.039-21.268-21.338l-3.469-5.624l-1.748,2.783
			c-21.199,33.934-24.449,71.199-12.002,100.039c7.471,17.339,20.588,31.651,38.898,40.391
			c26.404,12.588,50.512,10.174,71.918-7.174c5.412-4.397,10.67-9.741,15.734-16.049c13.809-17.225,21.504-34.047,20.135-57.325
			C1397.465,680.497,1390.002,656.615,1379.076,632.327z"/>
		<path fill="#C60C35" d="M1433.818,577.912c-1.254-5.798-5.039-9.606-10.115-10.181c-24.816-2.82-40.74,30.747-30.479,64.344
			c4.08,13.367,6.002,13.373,6.031,0c0.035-20.264,7.285-32.827,22.285-38.58C1431.258,589.771,1435.285,584.659,1433.818,577.912z"
			/>
		<path fill="#C60C35" d="M1315.205,577.606c5.953,4.346,7.688,10.75,5.305,19.735c-1.582,5.937-0.752,6.174,2.65,0.722
			c3.688-5.917,6.293-16.787,5.932-22.402c-0.518-7.337-5.369-8.778-11.803-9.731c-2.303-0.354-4.426,0.88-5.693,3.318
			C1310.154,572.049,1311.34,574.805,1315.205,577.606z"/>
		<path fill="#C60C35" d="M1266.834,574.884c11.598,8.401,20.182,15.082,15.545,32.525c-1.607,6.041,3.629,3.865,5.186,1.388
			c16.557-26.558,10.623-59.108-11.432-62.414c-4.484-0.684-8.629,1.728-11.057,6.423
			C1262.277,558.292,1259.334,569.415,1266.834,574.884z"/>
	</g>
</g>
<g id="sis-logo-b">
	<polygon id="speech-bubble-b" fill="#141414" points="480,350 480,1130.01 480,1390.006 480,1650 727.175,1390 1520,1390 1520,350 
			"/>
	<g id="lan_1_">
		<path fill="#EFEFEF" d="M590.346,909.388h19.317l-22.206,104.406h60.998l-3.588,16.906h-80.315L590.346,909.388z"/>
		<path fill="#EFEFEF" d="M686.048,1032.384c-5.021,0-9.485-0.967-13.417-2.863c-3.928-1.963-7.265-4.565-9.998-7.889
			c-2.731-3.298-4.811-7.188-6.232-11.686c-1.436-4.508-2.125-9.293-2.125-14.425c0-7.301,1.323-14.318,3.998-21.058
			c2.676-6.697,6.286-12.635,10.847-17.763c4.557-5.126,9.806-9.233,15.723-12.289c5.93-3.088,12.125-4.621,18.637-4.621
			c6.491,0,11.91,1.721,16.31,5.242c4.382,3.476,7.484,7.862,9.314,13.234l3.585-16.783h18.955l-14.338,66.979
			c-0.128,0.624-0.214,1.077-0.26,1.485c-0.063,0.406-0.086,0.759-0.086,1.089c0,2.313,1.308,3.498,3.933,3.606l-3.413,16.059
			c-1.609,0.24-3.057,0.44-4.366,0.595c-1.304,0.155-2.43,0.233-3.323,0.233c-7.413,0-11.113-2.923-11.113-8.875
			c0-1.8,0.403-4.529,1.197-8.183c-4.328,5.813-9.575,10.229-15.727,13.326C698.015,1030.891,691.965,1032.384,686.048,1032.384z
			 M694.251,1016.356c2.261,0,4.69-0.454,7.249-1.353c2.568-0.948,5.071-2.18,7.507-3.776c2.46-1.62,4.711-3.464,6.766-5.651
			c2.056-2.153,3.708-4.5,4.961-7.022l4.777-23.394c-0.344-2.709-1.11-5.238-2.304-7.597c-1.191-2.336-2.721-4.385-4.53-6.146
			c-1.825-1.742-3.823-3.121-5.973-4.113c-2.178-0.952-4.44-1.454-6.844-1.454c-4.336,0-8.402,1.125-12.201,3.258
			c-3.821,2.192-7.18,4.952-10.098,8.356c-2.908,3.434-5.2,7.31-6.912,11.747c-1.712,4.382-2.562,8.769-2.562,13.201
			c0,3.429,0.452,6.598,1.352,9.493c0.918,2.914,2.257,5.425,4.017,7.547c1.771,2.12,3.916,3.75,6.407,5.02
			C688.374,1015.716,691.174,1016.356,694.251,1016.356z"/>
		<path fill="#EFEFEF" d="M775.231,941.323h16.916l-3.756,17.938c4.436-6.012,10.085-10.754,16.919-14.229
			c6.834-3.521,14.012-5.242,21.537-5.242c3.741,0,6.886,0.525,9.396,1.533c2.485,1.02,4.516,2.485,6.049,4.339
			c1.533,1.935,2.651,4.102,3.344,6.611c0.677,2.493,1.025,5.286,1.025,8.362c0,2.422-0.205,4.926-0.604,7.547
			c-0.393,2.616-0.881,5.277-1.448,8.008l-11.457,54.509h-18.801l10.613-50.078c0.436-2.131,0.785-4.141,1.018-5.895
			c0.23-1.767,0.338-3.463,0.338-5.05c0-8.74-3.649-13.14-10.928-13.14c-2.511,0-5.124,0.544-7.866,1.538
			c-2.727,1.033-5.401,2.487-8.019,4.353c-2.633,1.89-5.102,4.118-7.441,6.682c-2.334,2.567-4.248,5.354-5.718,8.47l-11.456,53.121
			h-18.806L775.231,941.323z"/>
		<path fill="#EFEFEF" d="M882.021,1068.82c-9.451,0-16.938-1.706-22.473-5.043c-5.522-3.398-9.818-8.064-12.887-14.087l12.64-9.929
			c2.272,4.796,5.672,8.409,10.161,10.919c4.507,2.511,9.656,3.76,15.461,3.76c3.653,0,7.209-0.496,10.679-1.548
			c3.469-1.021,6.691-2.615,9.656-4.771c2.967-2.165,5.504-4.878,7.606-8.203c2.105-3.323,3.63-7.238,4.522-11.786l2.746-13.661
			c-4.003,5.438-8.936,9.684-14.874,12.637c-5.92,2.972-11.788,4.421-17.588,4.421c-4.797,0-9.063-0.948-12.825-2.875
			c-3.763-1.939-6.917-4.55-9.478-7.859c-2.562-3.339-4.538-7.139-5.897-11.446c-1.354-4.349-2.047-8.971-2.047-13.827
			c0-7.301,1.35-14.318,4.099-21.058c2.731-6.697,6.406-12.635,11.022-17.763c4.617-5.126,9.966-9.233,16.063-12.289
			c6.096-3.088,12.557-4.621,19.387-4.621c6.833,0,12.387,1.692,16.666,5.107c4.268,3.415,7.558,7.907,9.815,13.369l3.59-16.942
			h16.579l-18.454,86.809c-1.361,6.513-3.767,12.235-7.178,17.249c-3.42,5-7.513,9.255-12.306,12.711
			c-4.776,3.508-10.138,6.147-16.055,7.989C894.73,1067.893,888.526,1068.82,882.021,1068.82z M897.065,1016.356
			c2.61,0,5.229-0.47,7.863-1.489c2.617-0.956,5.127-2.259,7.52-3.922c2.378-1.633,4.543-3.502,6.49-5.607
			c1.929-2.12,3.467-4.369,4.593-6.784l5.127-23.394c-0.903-5.688-3.225-10.328-6.999-13.891c-3.76-3.632-8.09-5.419-12.977-5.419
			c-4.325,0-8.438,1.156-12.313,3.338c-3.878,2.229-7.25,5.073-10.167,8.556c-2.883,3.458-5.177,7.39-6.833,11.775
			c-1.648,4.389-2.463,8.702-2.463,12.894c0,3.322,0.472,6.442,1.444,9.347c0.962,2.85,2.327,5.394,4.108,7.589
			c1.753,2.14,3.863,3.854,6.31,5.123C891.212,1015.716,893.975,1016.356,897.065,1016.356z"/>
		<path fill="#EFEFEF" d="M983.176,1032.384c-13.908,0-20.849-7.389-20.849-22.19c0-4.217,0.56-8.961,1.721-14.199l11.783-54.671
			h18.621l-10.925,50.932c-0.806,3.637-1.195,7.065-1.195,10.243c0,9.251,3.935,13.858,11.783,13.858
			c5.005,0,10.059-1.655,15.135-4.992c5.057-3.283,9.523-8.085,13.398-14.345l11.797-55.696h18.773l-14.182,67.138
			c-0.314,1.053-0.498,1.927-0.498,2.574c0,2.166,1.311,3.373,3.922,3.606l-3.227,16.059c-1.729,0.24-3.203,0.44-4.455,0.595
			c-1.262,0.155-2.396,0.233-3.428,0.233c-3.408,0-6.1-0.666-8.014-2.103c-1.955-1.438-2.895-3.56-2.895-6.416
			c0-0.904,0.102-2.106,0.336-3.568c0.205-1.506,0.604-3.785,1.188-6.854c-5.125,6.474-11.066,11.435-17.758,14.748
			C997.469,1030.725,990.47,1032.384,983.176,1032.384z"/>
		<path fill="#EFEFEF" d="M1092.697,1032.384c-5,0-9.484-0.967-13.393-2.863c-3.941-1.963-7.287-4.565-10.02-7.889
			c-2.719-3.298-4.813-7.188-6.244-11.686c-1.395-4.508-2.127-9.293-2.127-14.425c0-7.301,1.354-14.318,4.037-21.058
			c2.67-6.697,6.285-12.635,10.826-17.763c4.574-5.126,9.797-9.233,15.742-12.289c5.885-3.088,12.125-4.621,18.605-4.621
			s11.953,1.721,16.311,5.242c4.422,3.476,7.492,7.862,9.324,13.234l3.566-16.783h18.988l-14.35,66.979
			c-0.1,0.624-0.176,1.077-0.232,1.485c-0.084,0.406-0.115,0.759-0.115,1.089c0,2.313,1.318,3.498,3.947,3.606l-3.447,16.059
			c-1.568,0.24-3.012,0.44-4.34,0.595c-1.32,0.155-2.41,0.233-3.346,0.233c-7.408,0-11.102-2.923-11.102-8.875
			c0-1.8,0.43-4.529,1.178-8.183c-4.295,5.813-9.539,10.229-15.68,13.326C1104.674,1030.891,1098.605,1032.384,1092.697,1032.384z
			 M1100.885,1016.356c2.301,0,4.734-0.454,7.301-1.353c2.568-0.948,5.039-2.18,7.502-3.776c2.455-1.62,4.691-3.464,6.76-5.651
			c2.045-2.153,3.703-4.5,4.941-7.022l4.797-23.394c-0.344-2.709-1.113-5.238-2.311-7.597c-1.199-2.336-2.697-4.385-4.545-6.146
			c-1.803-1.742-3.809-3.121-5.959-4.113c-2.154-0.952-4.451-1.454-6.85-1.454c-4.307,0-8.398,1.125-12.211,3.258
			c-3.834,2.192-7.186,4.952-10.072,8.356c-2.926,3.434-5.221,7.31-6.943,11.747c-1.684,4.382-2.568,8.769-2.568,13.201
			c0,3.429,0.473,6.598,1.363,9.493c0.936,2.914,2.275,5.425,4.023,7.547c1.793,2.12,3.91,3.75,6.418,5.02
			C1095.043,1015.716,1097.83,1016.356,1100.885,1016.356z"/>
		<path fill="#EFEFEF" d="M1190.617,1068.82c-9.479,0-16.953-1.706-22.459-5.043c-5.527-3.398-9.844-8.064-12.914-14.087
			l12.637-9.929c2.285,4.796,5.664,8.409,10.178,10.919c4.475,2.511,9.637,3.76,15.461,3.76c3.646,0,7.201-0.496,10.66-1.548
			c3.48-1.021,6.693-2.615,9.67-4.771c2.949-2.165,5.488-4.878,7.607-8.203c2.109-3.323,3.621-7.238,4.525-11.786l2.736-13.661
			c-3.973,5.438-8.936,9.684-14.869,12.637c-5.939,2.972-11.781,4.421-17.602,4.421c-4.797,0-9.053-0.948-12.809-2.875
			c-3.768-1.939-6.932-4.55-9.492-7.859c-2.572-3.339-4.525-7.139-5.893-11.446c-1.354-4.349-2.049-8.971-2.049-13.827
			c0-7.301,1.355-14.318,4.104-21.058c2.75-6.697,6.398-12.635,11-17.763c4.639-5.126,9.986-9.233,16.094-12.289
			c6.076-3.088,12.559-4.621,19.371-4.621c6.84,0,12.391,1.692,16.658,5.107c4.279,3.415,7.535,7.907,9.834,13.369l3.605-16.942
			h16.574l-18.479,86.809c-1.375,6.513-3.752,12.235-7.156,17.249c-3.416,5-7.529,9.255-12.33,12.711
			c-4.779,3.508-10.143,6.147-16.064,7.989C1203.313,1067.893,1197.107,1068.82,1190.617,1068.82z M1205.648,1016.356
			c2.619,0,5.225-0.47,7.857-1.489c2.627-0.956,5.125-2.259,7.521-3.922c2.387-1.633,4.535-3.502,6.486-5.607
			c1.926-2.12,3.455-4.369,4.611-6.784l5.133-23.394c-0.908-5.688-3.254-10.328-6.998-13.891c-3.746-3.632-8.104-5.419-12.998-5.419
			c-4.33,0-8.422,1.156-12.307,3.338c-3.855,2.229-7.27,5.073-10.168,8.556c-2.896,3.458-5.178,7.39-6.824,11.775
			c-1.674,4.389-2.461,8.702-2.461,12.894c0,3.322,0.473,6.442,1.443,9.347c0.947,2.85,2.324,5.394,4.102,7.589
			c1.746,2.14,3.852,3.854,6.299,5.123C1199.799,1015.716,1202.564,1016.356,1205.648,1016.356z"/>
		<path fill="#EFEFEF" d="M1305.268,1032.384c-5.699,0-10.748-0.967-15.111-2.863c-4.41-1.963-8.121-4.596-11.229-7.956
			c-3.057-3.369-5.389-7.333-6.982-11.978c-1.607-4.624-2.391-9.57-2.391-14.919c0-7.306,1.391-14.261,4.172-20.882
			c2.793-6.57,6.676-12.385,11.623-17.411c4.941-5.019,10.852-9.042,17.596-12.035c6.783-3.04,14.096-4.55,21.945-4.55
			c9.256,0,16.611,2.088,22.145,6.251c5.516,4.169,8.275,10.283,8.275,18.352c0,18.704-16.682,28.019-50.043,28.019
			c-4.916,0-10.424-0.156-16.584-0.521v3.093c0,3.325,0.391,6.405,1.205,9.229c0.787,2.836,1.984,5.355,3.582,7.537
			c1.607,2.145,3.643,3.838,6.16,5.055c2.49,1.162,5.467,1.761,8.883,1.761c4.885,0,9.623-1.238,14.189-3.697
			c4.535-2.402,8.129-5.725,10.744-9.963l14.865,4.609c-2.162,3.434-4.803,6.506-7.928,9.315c-3.162,2.782-6.611,5.192-10.35,7.178
			c-3.76,1.98-7.754,3.569-11.963,4.693C1313.871,1031.835,1309.59,1032.384,1305.268,1032.384z M1322.518,953.658
			c-4.105,0-7.869,0.664-11.27,2.121c-3.408,1.419-6.439,3.328-9.057,5.717c-2.623,2.423-4.846,5.164-6.682,8.331
			c-1.803,3.091-3.285,6.364-4.416,9.77c5.221,0.329,10.07,0.549,14.504,0.549c6.031,0,11.104-0.394,15.193-1.157
			c4.1-0.741,7.459-1.759,10.018-3.042c2.553-1.319,4.383-2.939,5.457-4.791c1.076-1.893,1.639-3.94,1.639-6.254
			c0-3.884-1.373-6.712-4.131-8.527C1331.053,954.573,1327.305,953.658,1322.518,953.658z"/>
		<path fill="#EFEFEF" d="M1390.178,1032.384c-6.955,0-13.566-1.145-19.824-3.51c-6.268-2.285-11.395-5.611-15.377-9.955
			l10.082-11.952c8.553,7.814,17.715,11.749,27.537,11.749c5.781,0,10.438-1.313,14-3.935c3.531-2.598,5.297-6.06,5.297-10.375
			c0-3.073-1.463-5.418-4.363-7.017c-2.916-1.6-7.436-3.261-13.574-4.978c-4.346-1.215-8.104-2.461-11.277-3.651
			c-3.211-1.228-5.826-2.561-7.869-4.119c-2.061-1.525-3.584-3.261-4.629-5.206c-1.02-1.907-1.514-4.213-1.514-6.839
			c0-5.011,1.064-9.512,3.23-13.578c2.148-4.042,5.061-7.488,8.719-10.333c3.621-2.868,7.854-5.04,12.631-6.585
			c4.785-1.541,9.834-2.31,15.205-2.31c6.391,0,12.098,1.035,17.102,3.094c5.023,2.013,9.344,4.996,12.986,8.838l-10.418,11.336
			c-3.32-3.325-6.895-5.814-10.777-7.465c-3.873-1.647-7.902-2.455-12.123-2.455c-5.002,0-9.295,1.152-12.811,3.562
			c-3.533,2.407-5.309,6.042-5.309,10.943c0,2.825,1.207,4.99,3.58,6.44c2.393,1.394,6.379,2.841,11.98,4.355
			c4.773,1.232,8.932,2.562,12.463,3.895c3.529,1.38,6.473,2.914,8.793,4.556c2.336,1.632,4.09,3.549,5.227,5.689
			c1.121,2.177,1.701,4.694,1.701,7.539c0,4.787-1,9.141-2.982,13.058c-2.014,3.933-4.775,7.319-8.355,10.181
			c-3.625,2.84-7.914,5.08-12.912,6.671C1401.586,1031.589,1396.1,1032.384,1390.178,1032.384z"/>
		<path fill="#EFEFEF" d="M630.508,1221.711c-5.585,5.13-11.452,9.029-17.6,11.715c-6.147,2.686-12.313,4.03-18.452,4.03
			c-4.563,0-8.682-0.742-12.397-2.22c-3.705-1.494-6.83-3.529-9.396-6.147c-2.564-2.624-4.527-5.688-5.89-9.15
			c-1.365-3.466-2.043-7.266-2.043-11.365c0-4.674,0.806-8.903,2.478-12.735c1.639-3.793,3.845-7.295,6.58-10.5
			c2.722-3.213,5.873-6.12,9.479-8.79c3.589-2.689,7.373-5.279,11.36-7.768c-2.966-4.797-5.15-9.021-6.576-12.661
			c-1.426-3.621-2.144-7.189-2.144-10.622c0-4.533,1.001-8.811,3-12.796c1.989-3.974,4.69-7.457,8.117-10.41
			c3.417-2.977,7.364-5.276,11.873-6.935c4.485-1.657,9.197-2.49,14.104-2.49c6.49,0,12.238,1.698,17.256,5.058
			c5.014,3.343,8.648,8.29,10.933,14.777l-12.985,9.044c-1.49-4.418-3.821-7.991-7.008-10.757
			c-3.195-2.732-6.722-4.078-10.596-4.078c-2.279,0-4.434,0.419-6.49,1.267c-2.063,0.846-3.874,2.001-5.479,3.412
			c-1.591,1.424-2.845,3.097-3.749,4.954c-0.917,1.89-1.375,3.833-1.375,5.922c0,2.262,0.744,5.011,2.215,8.156
			c1.496,3.219,4.217,7.639,8.205,13.362l20.847,30.237c2.288-4.357,4.255-8.948,5.9-13.847c1.656-4.886,2.933-10.149,3.848-15.725
			h30.584l-2.57,14.003h-15.381c-3.409,10.612-7.961,19.96-13.658,28.037l20.338,29.049h-23.767L630.508,1221.711z M598.892,1222.75
			c4.105,0,8.244-1.072,12.396-3.16c4.159-2.098,8.051-5.035,11.711-8.782l-20.35-30.074c-6.139,3.859-10.962,7.81-14.432,11.773
			c-3.483,3.99-5.214,8.674-5.214,14.021c0,5.239,1.541,9.234,4.619,12.049C590.697,1221.358,594.456,1222.75,598.892,1222.75z"/>
		<path fill="#C60C35" d="M728.926,1114.426h20.672l14.178,99.121l26.146-44.608l-8.198-53.976h17.949l5.123,41.156l22.723-41.156
			h17.942l-31.117,53.976l7.021,44.608l56.223-99.121h21.012l-73.308,121.313h-16.228l-9.556-54.36l-32.814,54.36h-16.237
			L728.926,1114.426z"/>
		<path fill="#C60C35" d="M904.237,1146.377h18.788l-19.125,89.361h-18.793L904.237,1146.377z M911.588,1110.997h18.79l-4.28,20.674
			h-18.782L911.588,1110.997z"/>
		<path fill="#C60C35" d="M945.08,1146.377h16.905l-3.755,17.923c4.447-6.04,10.092-10.777,16.919-14.235
			c6.835-3.486,14.013-5.201,21.521-5.201c3.76,0,6.881,0.494,9.383,1.514c2.516,1.051,4.566,2.468,6.064,4.359
			c1.553,1.885,2.666,4.046,3.35,6.549c0.688,2.521,1.029,5.31,1.029,8.414c0,2.396-0.221,4.898-0.604,7.516
			c-0.396,2.633-0.891,5.29-1.434,7.997l-11.457,54.526h-18.798l10.592-50.057c0.46-2.153,0.8-4.121,1.025-5.918
			c0.229-1.744,0.33-3.437,0.33-5.019c0-8.802-3.639-13.169-10.928-13.169c-2.501,0-5.121,0.516-7.854,1.555
			c-2.729,1.006-5.419,2.481-8.045,4.339c-2.623,1.877-5.094,4.115-7.415,6.678c-2.327,2.567-4.242,5.361-5.724,8.463
			l-11.457,53.128h-18.791L945.08,1146.377z"/>
		<path fill="#C60C35" d="M1063.123,1237.456c-5.67,0-10.713-0.959-15.115-2.931c-4.379-1.927-8.113-4.562-11.189-7.91
			c-3.063-3.372-5.412-7.373-7.004-11.981c-1.586-4.613-2.398-9.601-2.398-14.931c0-7.329,1.389-14.251,4.203-20.87
			c2.797-6.6,6.662-12.4,11.617-17.417c4.969-5.014,10.824-9.051,17.592-12.054c6.793-3.013,14.098-4.499,21.967-4.499
			c9.234,0,16.604,2.046,22.117,6.215c5.535,4.169,8.289,10.282,8.289,18.338c0,18.706-16.695,28.022-50.078,28.022
			c-4.893,0-10.42-0.139-16.566-0.476v3.042c0,3.346,0.418,6.393,1.211,9.254c0.795,2.828,1.984,5.346,3.586,7.514
			c1.588,2.16,3.648,3.827,6.162,5.022c2.488,1.215,5.443,1.824,8.875,1.824c4.906,0,9.602-1.229,14.176-3.681
			c4.57-2.446,8.137-5.787,10.76-9.985l14.879,4.602c-2.176,3.396-4.822,6.533-7.965,9.325c-3.123,2.782-6.555,5.181-10.311,7.161
			c-3.758,1.986-7.758,3.542-11.98,4.697C1071.762,1236.87,1067.484,1237.456,1063.123,1237.456z M1080.402,1158.68
			c-4.1,0-7.857,0.7-11.275,2.119c-3.438,1.43-6.439,3.338-9.047,5.744c-2.627,2.396-4.869,5.169-6.666,8.284
			c-1.848,3.125-3.324,6.385-4.451,9.803c5.232,0.361,10.08,0.54,14.512,0.54c6.029,0,11.107-0.399,15.205-1.134
			c4.115-0.706,7.434-1.761,10-3.047c2.559-1.353,4.393-2.912,5.475-4.82c1.07-1.841,1.615-3.936,1.615-6.22
			c0-3.867-1.359-6.722-4.084-8.533C1088.945,1159.585,1085.193,1158.68,1080.402,1158.68z"/>
	</g>
	<g id="sis_1_">
		<g>
			<path fill="#EFEFEF" d="M557.745,763.284c-1.248-14.979,2.075-35.78,7.485-48.252c2.495-2.086,6.649-2.086,8.73,0.833
				c2.92,36.19,19.975,63.636,61.565,63.636c26.622,0,60.737-17.055,60.737-58.644c0-30.794-19.554-47.846-41.599-65.31
				c-21.633-17.479-43.265-42.43-43.265-72.382c0-45.349,35.782-78.622,91.108-78.622c27.032,0,51.159,10.394,60.319,16.631
				c-5.825,10.407-11.242,33.695-15.393,48.255c-2.917,2.496-8.734,2.083-11.229-0.412c5.813-28.281-2.083-51.587-39.113-51.587
				c-37.846,0-56.148,24.554-56.148,53.245c0,27.871,25.375,48.255,40.343,59.908c25.375,19.545,44.925,41.59,44.925,75.713
				c0,49.502-37.85,86.101-95.674,86.101C600.582,792.399,571.879,783.252,557.745,763.284z"/>
			<path fill="#EFEFEF" d="M842.697,571.103c12.472-39.11,13.31-45.349-9.569-49.09l-9.98-1.66
				c-2.498-3.331-2.082-8.745,2.495-10.405c16.629,0.837,30.774,1.247,48.254,1.247c17.056,0,29.951-0.41,49.912-1.247
				c2.914,1.66,3.743,8.324,0,10.405l-11.226,1.66c-24.127,3.741-25.8,7.906-38.686,49.09l-48.68,154.745
				c-12.063,38.685-13.311,47.414,7.911,49.501l12.896,1.247c2.499,2.906,1.251,8.73-1.669,10.403
				c-20.385-0.833-34.52-1.246-52.406-1.246c-17.057,0-31.201,0.412-47.846,1.246c-3.33-2.081-3.33-7.909-0.409-10.403l12.895-1.247
				c19.963-2.087,24.127-7.076,37.433-49.501L842.697,571.103z"/>
			<path fill="#EFEFEF" d="M895.527,763.284c-1.249-14.979,2.072-35.78,7.487-48.252c2.496-2.086,6.647-2.086,8.73,0.833
				c2.908,36.19,19.974,63.636,61.565,63.636c26.622,0,60.729-17.055,60.729-58.644c0-30.794-19.531-47.846-41.587-65.31
				c-21.634-17.479-43.269-42.43-43.269-72.382c0-45.349,35.781-78.622,91.092-78.622c27.053,0,51.18,10.394,60.338,16.631
				c-5.846,10.407-11.236,33.695-15.396,48.255c-2.924,2.496-8.732,2.083-11.225-0.412c5.805-28.281-2.102-51.587-39.129-51.587
				c-37.835,0-56.136,24.554-56.136,53.245c0,27.871,25.38,48.255,40.347,59.908c25.373,19.545,44.932,41.59,44.932,75.713
				c0,49.502-37.867,86.101-95.682,86.101C938.366,792.399,909.662,783.252,895.527,763.284z"/>
			<path fill="#EFEFEF" d="M1130.16,764.943c0,16.64-11.656,26.623-23.734,26.623c-11.652,0-18.297-7.487-18.297-19.552
				c0-14.966,11.646-25.782,23.719-25.782C1123.896,746.232,1130.16,755.373,1130.16,764.943z M1197.945,530.335
				c-1.662,4.988-5.412,13.719-13.717,34.943l-51.574,135.193c-1.672,3.33-8.342,3.33-10.83,0l28.709-134.359
				c4.582-22.059,6.645-30.79,8.318-36.194c3.311-11.238,7.91-12.896,22.059-12.896
				C1197.127,517.022,1200.439,522.422,1197.945,530.335z"/>
		</g>
	</g>
	<g id="wine_1_">
		<path fill="#C60C35" d="M1379.076,632.327c-16.479-36.663-13.459-64.85,9.205-86.174c15.973-15.015,13.666-36.409-4.133-38.414
			c-38.029-4.315-60.465,59.963-36.766,105.276c6.811,12.998,3.596,28.586,2.965,29.476c-3.541,5.17-14.059-1.952-21.445-9.972
			c-10.939-11.894-23.602-30.043-30.219-19.205c-7.797,12.792,1.988,40.969,21.418,47.042c13.398,4.204,6.254,15.193-2.002,14.061
			c-9.473-1.327-19.162-5.237-27.771-10.875c-8.582-5.646-16.082-13.039-21.268-21.338l-3.469-5.624l-1.748,2.783
			c-21.199,33.934-24.449,71.199-12.002,100.039c7.471,17.339,20.588,31.651,38.898,40.391
			c26.404,12.588,50.512,10.174,71.918-7.174c5.412-4.397,10.67-9.741,15.734-16.049c13.809-17.225,21.504-34.047,20.135-57.325
			C1397.465,680.497,1390.002,656.615,1379.076,632.327z"/>
		<path fill="#C60C35" d="M1433.818,577.912c-1.254-5.798-5.039-9.606-10.115-10.181c-24.816-2.82-40.74,30.747-30.479,64.344
			c4.08,13.367,6.002,13.373,6.031,0c0.035-20.264,7.285-32.827,22.285-38.58C1431.258,589.771,1435.285,584.659,1433.818,577.912z"
			/>
		<path fill="#C60C35" d="M1315.205,577.606c5.953,4.346,7.688,10.75,5.305,19.735c-1.582,5.937-0.752,6.174,2.65,0.722
			c3.688-5.917,6.293-16.787,5.932-22.402c-0.518-7.337-5.369-8.778-11.803-9.731c-2.303-0.354-4.426,0.88-5.693,3.318
			C1310.154,572.049,1311.34,574.805,1315.205,577.606z"/>
		<path fill="#C60C35" d="M1266.834,574.884c11.598,8.401,20.182,15.082,15.545,32.525c-1.607,6.041,3.629,3.865,5.186,1.388
			c16.557-26.558,10.623-59.108-11.432-62.414c-4.484-0.684-8.629,1.728-11.057,6.423
			C1262.277,558.292,1259.334,569.415,1266.834,574.884z"/>
	</g>
</g>
<g id="sis-icon" display="none">
	<polygon id="speech-bubble_1_" display="inline" fill="#EFEFEF" points="480.001,350 480.001,1130.01 480.001,1390.006 
		480.001,1650 727.175,1390.006 1519.998,1390.006 1519.998,350 	"/>
	<g id="wine_2_" display="inline">
		<path fill="#C60C35" d="M1104.798,828.65c-43.462-96.699-35.498-171.043,24.278-227.287c42.128-39.601,36.045-96.03-10.9-101.319
			c-100.302-11.38-159.477,158.154-96.971,277.669c17.963,34.281,9.485,75.397,7.821,77.744c-9.341,13.636-37.08-5.149-56.563-26.3
			c-28.853-31.371-62.25-79.241-79.703-50.654c-20.564,33.74,5.244,108.058,56.49,124.074c35.339,11.088,16.494,40.073-5.28,37.085
			c-24.983-3.499-50.54-13.811-73.248-28.683c-22.635-14.89-42.417-34.389-56.094-56.281l-9.149-14.833l-4.61,7.341
			c-55.913,89.499-64.486,187.789-31.656,263.854c19.704,45.733,54.301,83.483,102.596,106.531
			c69.642,33.201,133.226,26.837,189.685-18.921c14.274-11.596,28.143-25.691,41.5-42.33c36.42-45.431,56.716-89.798,53.105-151.192
			C1153.298,955.698,1133.614,892.71,1104.798,828.65z"/>
		<path fill="#C60C35" d="M1249.182,685.128c-3.307-15.292-13.291-25.337-26.68-26.853c-65.452-7.438-107.453,81.094-80.387,169.708
			c10.761,35.256,15.83,35.27,15.906,0c0.094-53.448,19.216-86.583,58.778-101.756
			C1242.428,716.407,1253.05,702.925,1249.182,685.128z"/>
		<path fill="#C60C35" d="M936.336,684.322c15.702,11.463,20.276,28.354,13.991,52.051c-4.172,15.658-1.983,16.285,6.991,1.905
			c9.725-15.607,16.599-44.275,15.646-59.087c-1.365-19.352-14.162-23.151-31.131-25.667c-6.072-0.934-11.673,2.322-15.017,8.752
			C923.014,669.666,926.143,676.936,936.336,684.322z"/>
		<path fill="#C60C35" d="M808.757,677.144c30.589,22.159,53.229,39.779,41,85.787c-4.24,15.933,9.571,10.193,13.677,3.66
			c43.669-70.048,28.019-155.898-30.151-164.617c-11.827-1.805-22.758,4.556-29.162,16.94
			C796.739,633.381,788.976,662.718,808.757,677.144z"/>
	</g>
</g>
<g id="sis-icon-b" display="none">
	<polygon id="speech-bubble-b_1_" display="inline" fill="#141414" points="480,350 480,1130.01 480,1390.006 480,1650 
		727.175,1390 1520,1390 1520,350 	"/>
	<g id="wine_3_" display="inline">
		<path fill="#C60C35" d="M1104.798,828.65c-43.462-96.699-35.498-171.043,24.278-227.287c42.128-39.601,36.045-96.03-10.9-101.319
			c-100.302-11.38-159.477,158.154-96.971,277.669c17.963,34.281,9.485,75.397,7.821,77.744c-9.341,13.636-37.08-5.149-56.563-26.3
			c-28.853-31.371-62.249-79.241-79.703-50.654c-20.564,33.74,5.244,108.058,56.49,124.074c35.339,11.088,16.494,40.073-5.28,37.085
			c-24.983-3.499-50.54-13.811-73.247-28.683c-22.636-14.89-42.418-34.389-56.094-56.281l-9.149-14.833l-4.61,7.341
			c-55.913,89.499-64.485,187.789-31.655,263.854c19.704,45.733,54.301,83.483,102.596,106.531
			c69.642,33.201,133.226,26.837,189.685-18.921c14.274-11.596,28.143-25.691,41.5-42.33c36.42-45.431,56.716-89.798,53.105-151.192
			C1153.298,955.698,1133.614,892.71,1104.798,828.65z"/>
		<path fill="#C60C35" d="M1249.182,685.128c-3.307-15.292-13.291-25.337-26.68-26.853c-65.452-7.438-107.453,81.094-80.387,169.708
			c10.761,35.256,15.83,35.27,15.906,0c0.094-53.448,19.216-86.583,58.778-101.756
			C1242.428,716.407,1253.05,702.925,1249.182,685.128z"/>
		<path fill="#C60C35" d="M936.336,684.322c15.702,11.463,20.276,28.354,13.991,52.051c-4.172,15.658-1.983,16.285,6.991,1.905
			c9.725-15.607,16.599-44.275,15.646-59.087c-1.365-19.352-14.162-23.151-31.131-25.667c-6.072-0.934-11.673,2.322-15.017,8.752
			C923.014,669.666,926.143,676.936,936.336,684.322z"/>
		<path fill="#C60C35" d="M808.757,677.144c30.59,22.159,53.229,39.779,41,85.787c-4.239,15.933,9.571,10.193,13.677,3.66
			c43.669-70.048,28.02-155.898-30.151-164.617c-11.827-1.805-22.758,4.556-29.162,16.94
			C796.739,633.381,788.976,662.718,808.757,677.144z"/>
	</g>
</g>
</svg>
